<?xml version="1.0" encoding="UTF-8"?>
<svg id="Ebene_1" data-name="Ebene 1" xmlns="http://www.w3.org/2000/svg" viewBox="0 0 1200 1200">
  <defs>
    <style>
      .cls-1, .cls-2, .cls-3 {
        stroke-width: 0px;
      }

      .cls-2 {
        fill: #fff;
      }

      .cls-3 {
        fill: #ffd000;
      }
    </style>
  </defs>
  <polygon class="cls-3" points="278.48 342.77 278.48 714.03 600 899.66 921.52 714.03 921.52 342.77 600 157.14 278.48 342.77"/>
  <g>
    <path class="cls-2" d="m588.47,687.81c-109.74-31.71-170.39-140.62-143.87-232.44,7.42-25.67,11.34-94.21,59.37-92.6,123.76,4.16,322.53,164.81,331.24,216.2,15.96,94.23-137,140.55-246.74,108.84Z"/>
    <g>
      <g>
        <path class="cls-1" d="m748.15,662.42c.11-.06.21-.12.32-.18-.14.11-.28.22-.39.33.02.06.04.12.05.19,0-.11.01-.22.02-.34Zm-132.15,111.84c15.96-23.7,32.26-47.92,48.69-72.31h-42.21c-10.68,24.13-21.23,47.95-32.01,72.31l-19.74-.1c9.68-23.77,19.46-47.76,29.52-72.47-10.68.6-17.72-4.22-23.54-11.33-4.54-5.54-5.34-12.13-4.83-18.89,1.06-14.1,12.5-24.84,26.11-24.59,8.89.17,15.59,4.31,21.36,11.09,6.11,7.17,4.87,15.51,5.37,24.44,71.6-3.19,87.33-12.5,132.88-26.72,15.92-4.97,35.2-11.19,48.64-1.21,32.09,23.85,75.04,59.61,106.07,90.53,46.97,46.79,82.54,90.94,117.6,147.14,22.5,36.07,32.9,72.33,31.94,80.52-7.75-2.18-57.45-61.2-98.84-108.44-53.08-60.59-110.03-116.97-175.09-164.78-3.89-2.86-16.12-12.42-22.08-11.44-27.06,4.42-51.76,9.22-79.73,14.31-15.43,22.45-32.17,46.8-49.83,72.49l-20.26-.56Z"/>
        <path class="cls-1" d="m983.02,912.49c-61.86-81.96-196.67-205.61-209.49-215.17-5.03-3.75-10.38-3.52-15.56.03,106.47,127.32,152.81,185.4,229.98,279.65.63-16.76,3.18-53.75-4.94-64.51Z"/>
        <path class="cls-1" d="m879.79,784.09c-.21.1-.41.2-.05.02-.37.16-.16.07.05-.02,0,0,0,0,0,0Z"/>
      </g>
      <path class="cls-1" d="m842.52,558.62c-19.7-19.51-75.36-81.39-75.36-81.39-38.32-39.32-78.92-73.72-127.69-97.38-.68-1.7-9.83-67.67-53.27-107.67-21.14-19.46-46.36-26.7-74.39-25.7-13.19.47-25.87,3.7-36.61,11.66-5.71,4.24-19.32,8.29-19.87,8.73,4.48,8.82,8.94,17.58,13.8,27.14-15.92-4.16-26.31-8.76-36.34-14.89,4.94-4.45,15.37.86,16.71-9.98-1.73-.22-37.92-2.55-54.9-3.04-17.3-.5-34.63-.66-51.93-.29-7,.15-14.01,1.94-21.41,6.31,2.96,1.43,19.51,6.68,25.94,8.42,32.8,8.84,65.65,17.54,98.37,26.68,4.78,1.33,10.21,3.73,13.2,7.38,7.24,8.86,13.21,18.74,19.33,27.68-.86,5.79-1.51,9.74-7.5,21.3-4.6,8.87-11.49,15.23-16.71,23.75-48.42,75.94-10.81,175.14-10.81,175.14,0,0,14.67-24.18,20.28-54.01,5.92-31.45,6.02-62.25,6.52-66.96,5.54,15.89,58.76,113.04,149.78,150.91,128,53.26,334.01,64.92,334.33,64.3-19.01-16.21-98.35-85.09-111.46-98.07Zm-320.03-285.42c8.17.05,15.37,7.04,15.57,15.12.22,8.96-6.95,16.69-15.55,16.78-9.56.09-16.15-6.29-16.2-15.71-.05-8.76,7.43-16.24,16.18-16.19Zm20.75,184.02l.24-.13.09.18-.33-.06Zm-11.28-15.88c-12.63-1.7-25.7,3.06-32.2,10.34-7.06-25.71-13.75-50.03-20.62-75.07,61.38,15.49,104.09,55.71,143.62,100.7-28.13-13.05-63.32-32.28-90.8-35.98Z"/>
      <rect class="cls-1" x="478.26" y="773.94" width="197.13" height="18.49" rx="9.25" ry="9.25"/>
    </g>
  </g>
  <g>
    <path class="cls-1" d="m381.31,1068.69v-112.93h17.06v4.9c7.27-4.42,14.06-6.63,20.38-6.63,10.42,0,18.06,3.19,22.9,9.56,4.84,6.37,7.27,17.06,7.27,32.06s-2.76,25.56-8.29,31.67c-5.53,6.11-14.56,9.16-27.09,9.16-4.32,0-9.32-.47-15.01-1.42v33.64h-17.22Zm34.43-99.35c-4.95,0-9.9,1.11-14.85,3.32l-2.37,1.11v46.59c4.21.84,8.85,1.26,13.9,1.26,7.16,0,12.11-2.05,14.85-6.16,2.74-4.11,4.11-11.11,4.11-21.01,0-16.74-5.21-25.11-15.64-25.11Z"/>
    <path class="cls-1" d="m462.91,942.33v-18.16h17.22v18.16h-17.22Zm0,92.4v-78.97h17.22v78.97h-17.22Z"/>
    <path class="cls-1" d="m527.39,954.02c5.58,0,12.16.74,19.74,2.21l3.95.79-.63,13.58c-8.32-.84-14.48-1.26-18.48-1.26-8,0-13.37,1.79-16.11,5.37-2.74,3.58-4.11,10.32-4.11,20.22s1.32,16.74,3.95,20.53c2.63,3.79,8.11,5.69,16.43,5.69l18.48-1.26.47,13.74c-10.64,1.9-18.64,2.84-24.01,2.84-12,0-20.45-3.24-25.35-9.71-4.9-6.48-7.34-17.08-7.34-31.83s2.58-25.24,7.74-31.51c5.16-6.26,13.58-9.4,25.27-9.4Z"/>
    <path class="cls-1" d="m623.79,980.08v36.01c.1,2.32.71,4.03,1.82,5.13s2.82,1.82,5.13,2.13l-.47,13.11c-9.06,0-16.06-1.95-21.01-5.84-8.43,3.9-16.9,5.84-25.43,5.84-15.69,0-23.53-8.37-23.53-25.11,0-8,2.13-13.79,6.4-17.37,4.26-3.58,10.82-5.74,19.66-6.48l20.38-1.74v-5.69c0-4.21-.92-7.16-2.76-8.84-1.84-1.68-4.56-2.53-8.13-2.53-6.74,0-15.16.42-25.27,1.26l-5.05.32-.63-12.16c11.48-2.74,22.03-4.11,31.67-4.11s16.58,2.08,20.85,6.24c4.26,4.16,6.4,10.77,6.4,19.82Zm-35.38,19.59c-7.27.63-10.9,4.58-10.9,11.85s3.21,10.9,9.63,10.9c5.26,0,10.84-.84,16.74-2.53l2.84-.95v-21.01l-18.32,1.74Z"/>
    <path class="cls-1" d="m640.84,999.98v-15.64h47.23v15.64h-47.23Z"/>
    <path class="cls-1" d="m704.94,1034.73v-78.97h17.06v9.48c8.95-5.79,17.9-9.53,26.85-11.21v17.22c-9.06,1.79-16.8,4.11-23.22,6.95l-3.47,1.42v55.12h-17.22Z"/>
    <path class="cls-1" d="m816,972.02c-12.43-1.68-21.43-2.53-27.01-2.53s-9.45.66-11.61,1.97c-2.16,1.32-3.24,3.4-3.24,6.24s1.18,4.84,3.55,6c2.37,1.16,7.95,2.5,16.74,4.03,8.79,1.53,15.03,3.92,18.72,7.19,3.68,3.27,5.53,9.06,5.53,17.37s-2.66,14.43-7.98,18.32c-5.32,3.9-13.09,5.84-23.3,5.84-6.42,0-14.53-.9-24.32-2.69l-4.9-.79.63-14.37c12.64,1.69,21.74,2.53,27.32,2.53s9.56-.68,11.93-2.05c2.37-1.37,3.55-3.63,3.55-6.79s-1.13-5.34-3.4-6.55c-2.27-1.21-7.69-2.53-16.27-3.95-8.58-1.42-14.87-3.66-18.87-6.71-4-3.05-6-8.63-6-16.74s2.76-14.16,8.29-18.16c5.53-4,12.61-6,21.24-6,6.74,0,15.01.84,24.8,2.53l4.9.95-.32,14.37Z"/>
  </g>
</svg>